<?xml version="1.0" standalone="no"?>
<!DOCTYPE svg PUBLIC "-//W3C//DTD SVG 20010904//EN"
 "http://www.w3.org/TR/2001/REC-SVG-20010904/DTD/svg10.dtd">
<svg version="1.0" xmlns="http://www.w3.org/2000/svg"
 width="128.000000pt" height="128.000000pt" viewBox="0 0 128.000000 128.000000"
 preserveAspectRatio="xMidYMid meet">
<metadata>
Created by potrace 1.11, written by Peter Selinger 2001-2013
</metadata>
<g transform="translate(0.000000,128.000000) scale(0.100000,-0.100000)"
fill="#000000" stroke="none">
<path d="M515 1234 c-237 -50 -414 -229 -471 -475 -3 -13 -7 -62 -8 -108 -5
-170 55 -320 180 -445 170 -170 422 -217 667 -124 51 19 141 83 192 136 112
116 169 255 169 412 0 109 -4 132 -33 214 -44 125 -143 247 -254 314 -128 77
-299 107 -442 76z"/>
</g>
</svg>
